<?xml version="1.0" encoding="UTF-8" standalone="no"?>
<!-- Created with Inkscape (http://www.inkscape.org/) -->

<svg
   width="49.583073mm"
   height="13.582278mm"
   viewBox="0 0 49.583074 13.582278"
   version="1.1"
   id="svg1"
   xml:space="preserve"
   inkscape:version="1.4.3 (0d15f75042, 2025-12-25)"
   sodipodi:docname="logo-argensonix.svg"
   xmlns:inkscape="http://www.inkscape.org/namespaces/inkscape"
   xmlns:sodipodi="http://sodipodi.sourceforge.net/DTD/sodipodi-0.dtd"
   xmlns="http://www.w3.org/2000/svg"
   xmlns:svg="http://www.w3.org/2000/svg"><sodipodi:namedview
     id="namedview1"
     pagecolor="#ffffff"
     bordercolor="#000000"
     borderopacity="0.25"
     inkscape:showpageshadow="2"
     inkscape:pageopacity="0.0"
     inkscape:pagecheckerboard="0"
     inkscape:deskcolor="#d1d1d1"
     inkscape:document-units="mm"
     inkscape:zoom="4.0315403"
     inkscape:cx="86.939475"
     inkscape:cy="10.417854"
     inkscape:window-width="1920"
     inkscape:window-height="1043"
     inkscape:window-x="0"
     inkscape:window-y="0"
     inkscape:window-maximized="1"
     inkscape:current-layer="layer1" /><defs
     id="defs1" /><g
     inkscape:label="Layer 1"
     inkscape:groupmode="layer"
     id="layer1"><g
       id="g1"
       transform="translate(0.62416236,-0.27049472)"><path
         class="cls-2"
         d="m 12.30857,7.0625337 c 0,-3.03394 -2.220723,-5.55032 -5.0928486,-5.94889 a 5.7745911,5.7745911 0 0 0 -0.797152,-0.0553 5.8364596,5.8364596 0 0 0 -0.654378,0.0374 c -2.939944,0.33373 -5.23502699,2.88165 -5.23502699,5.96555 0,3.3105603 2.64190499,6.0036303 5.88940499,6.0036303 v 0 c 0.06782,0 0.13504,0 0.202264,-0.003 3.154102,-0.10822 5.6877366,-2.75731 5.6877366,-5.9988603 z m -0.654379,0 c 0,2.9500603 -2.3486226,5.3498403 -5.2350256,5.3498403 -2.886403,0 -5.235027,-2.39978 -5.235027,-5.3498403 0,-2.95005 2.347434,-5.34687 5.234431,-5.34687 2.886999,0 5.2356216,2.39741 5.2356216,5.34687 z"
         id="path1"
         style="fill:#9aa0a6;stroke-width:0.0594889" /><path
         class="cls-2"
         d="m 11.009331,6.6532537 h -0.0071 l -0.01249,0.003 c -0.342061,0.1011 -0.824516,0.24926 -1.4913866,0.4539 l -0.07912,0.0244 -1.110659,0.34027 -0.06603,0.0202 a 0.03509847,0.03509847 0 0 1 -0.01368,0 0.04759115,0.04759115 0 0 1 -0.02974,-0.0111 0.04878093,0.04878093 0 0 1 -0.01844,-0.0404 l 0.0048,-0.069 c 0,-0.0202 0,-0.0429 0,-0.0672 0,-0.0244 0.185012,-3.51758 0.287333,-4.60801 a 0.25996667,0.25996667 0 0 0 -0.06782,-0.20643 c -0.126116,-0.13801 -0.383109,-0.18738 -0.565144,-0.18738 a 0.47591148,0.47591148 0 0 0 -0.2213,0.0381 l -0.0048,0.003 c -1.548498,1.28259 -3.076768,2.78052 -4.08808,4.00837 -0.603218,0.7335 -1.283176,1.5943 -1.725179,2.52947 -0.0048,0.01 -0.0096,0.019 -0.01309,0.028 a 0.05948894,0.05948894 0 0 0 0,0.0458 5.123782,5.123782 0 0 0 0.757294,1.3153003 0.05948894,0.05948894 0 0 0 0.0464,0.022 h 0.0041 a 0.05948894,0.05948894 0 0 0 0.047,-0.0291 c 1.258192,-2.1273303 3.563983,-4.6764303 3.985759,-5.0565703 l 0.08626,-0.0773 a 0.04759115,0.04759115 0 0 1 0.03212,-0.0119 0.04580648,0.04580648 0 0 1 0.02022,0.004 0.04699625,0.04699625 0 0 1 0.02737,0.0458 l -0.0066,0.11541 c -0.0066,0.11898 -0.01844,0.35157 -0.03331,0.63772 l -0.0119,0.23796 c -0.02915,0.57585 -0.07853,1.54017 -0.09101,1.70138 v 0.0273 a 0.04699625,0.04699625 0 0 1 -0.02676,0.0392 l -0.02439,0.0119 q -0.03153,0.0149 -0.08745,0.0375 c -0.07138,0.0291 -0.216539,0.0833 -0.398576,0.15051 -0.609167,0.22665 -1.627023,0.60499 -1.963134,0.81499 -0.290307,0.18323 -0.439029,0.39739 -0.442003,0.63713 a 0.72041102,0.72041102 0 0 0 0.276623,0.5574103 1.301618,1.301618 0 0 0 0.729929,0.20166 2.9393482,2.9393482 0 0 0 0.908396,-0.17252 l 0.05652,-0.0184 a 4.9131912,4.9131912 0 0 0 0.751941,-0.2796003 l 0.07138,-0.0357 a 0.04580648,0.04580648 0 0 1 0.02141,-0.006 0.04759115,0.04759115 0 0 1 0.02558,0.007 0.04937582,0.04937582 0 0 1 0.02261,0.0422 l -0.01666,0.5098103 c -0.01428,0.42416 -0.03807,1.13387 -0.03807,1.32661 0,0.0904 0.04402,0.2433 0.339682,0.25045 0.03331,0 0.06544,0 0.09637,0 0.480076,0 0.753129,-0.0898 0.832845,-0.13683 0.18739,-0.11541 0.203452,-0.38251 0.204047,-0.39381 0.03985,-0.95183 0.06306,-1.5003203 0.07674,-1.8239403 l 0.0078,-0.18203 c 0.0113,-0.25818 0.01249,-0.28139 0.01249,-0.30577 v -0.0286 a 0.04878093,0.04878093 0 0 1 0.02618,-0.0429 l 0.02558,-0.0131 h 0.0053 c 1.308757,-0.84177 2.3426746,-1.65261 2.9054396,-2.28319 a 0.05948894,0.05948894 0 0 0 0.01666,-0.0417 0.05948894,0.05948894 0 0 0 -0.0583,-0.0612 z"
         id="path2"
         style="fill:#9aa0a6;stroke-width:0.0594889" /><path
         class="cls-2"
         d="m 23.174818,5.0339637 h -0.516363 a 0.06781739,0.06781739 0 0 0 -0.06782,0.0678 v 0.43665 c -0.34801,-0.39679 -0.806075,-0.59846 -1.363486,-0.59846 -1.099951,0 -1.929227,0.84296 -1.929227,1.96313 0,1.08211 0.867944,1.92923 1.976223,1.92923 0.386083,0 0.923268,-0.10055 1.31649,-0.57228 v 0.47293 c 0,0.51221 -0.178466,1.3718203 -1.355753,1.3718203 a 1.6799676,1.6799676 0 0 1 -1.34564,-0.6454503 0.06781739,0.06781739 0 0 0 -0.05056,-0.0273 h -0.0036 a 0.06722249,0.06722249 0 0 0 -0.04937,0.0214 l -0.383109,0.40631 a 0.06841228,0.06841228 0 0 0 0,0.0934 c 0.483645,0.5163703 1.058308,0.7567003 1.809058,0.7567003 1.767417,0 2.030952,-1.2385503 2.030952,-1.9768203 v -3.62882 a 0.06781739,0.06781739 0 0 0 -0.06782,-0.0702 z m -0.568714,1.85129 a 1.2492677,1.2492677 0 0 1 -0.341467,0.93814 1.3509937,1.3509937 0 0 1 -0.972049,0.40156 c -0.713867,0 -1.292694,-0.60084 -1.292694,-1.3397 0,-0.73885 0.580017,-1.34028 1.292694,-1.34028 0.772167,0 1.313516,0.55146 1.313516,1.34028 z"
         id="path3"
         style="fill:#9aa0a6;stroke-width:0.0594889" /><path
         class="cls-2"
         d="m 25.536528,4.9399737 v 0 c -1.091621,0 -1.914353,0.85663 -1.914353,1.99228 0,1.13564 0.842958,1.99169 1.963135,1.99169 0.661517,0 1.208219,-0.26949 1.625833,-0.80013 a 0.06900717,0.06900717 0 0 0 -0.01011,-0.0945 l -0.399172,-0.32838 a 0.06662761,0.06662761 0 0 0 -0.04283,-0.0155 h -0.01131 a 0.07019694,0.07019694 0 0 0 -0.047,0.0316 1.3087566,1.3087566 0 0 1 -1.120176,0.60202 c -0.64843,0 -1.179071,-0.49435 -1.269494,-1.17848 h 2.974448 a 0.06841228,0.06841228 0 0 0 0.06842,-0.0678 v -0.23438 c 0,-1.11006 -0.746585,-1.89057 -1.817387,-1.8983 z m 0,0.605 c 0.654379,0 1.090433,0.4069 1.118987,1.03748 h -2.333751 c 0.04462,-0.54551 0.616306,-1.03748 1.214764,-1.03748 z"
         id="path4"
         style="fill:#9aa0a6;stroke-width:0.0594889" /><path
         class="cls-2"
         d="m 29.559766,4.9399737 a 1.5818108,1.5818108 0 0 0 -1.176096,0.55443 v -0.39262 a 0.06841228,0.06841228 0 0 0 -0.06782,-0.0684 h -0.518744 a 0.06662761,0.06662761 0 0 0 -0.06305,0.0624 0.0166569,0.0166569 0 0 0 0,0.006 v 0.0238 a 0.01011312,0.01011312 0 0 0 0,0.004 v 0.70792 a 0.02617514,0.02617514 0 0 0 0,0.006 v 2.91852 a 0.06781739,0.06781739 0 0 0 0.06782,0.0678 h 0.516363 a 0.06841228,0.06841228 0 0 0 0.06782,-0.0678 v -1.87628 c 0,-1.32482 1.000008,-1.34028 1.04284,-1.34028 0.665682,0 0.925054,0.33433 0.925054,1.18977 v 2.02263 a 0.06781739,0.06781739 0 0 0 0.06782,0.0678 h 0.516364 a 0.06781739,0.06781739 0 0 0 0.06782,-0.0678 v -2.32007 c -0.0018,-0.97859 -0.500897,-1.49733 -1.446177,-1.49733 z"
         id="path5"
         style="fill:#9aa0a6;stroke-width:0.0594889" /><path
         class="cls-2"
         d="m 33.404536,6.6621737 -0.523502,-0.12493 c -0.505656,-0.11897 -0.667467,-0.23795 -0.667467,-0.51279 0,-0.33076 0.346821,-0.47948 0.690667,-0.47948 0.320051,0 0.572878,0.15824 0.729929,0.45687 a 0.06841228,0.06841228 0 0 0 0.04283,0.0339 0.08625896,0.08625896 0 0 0 0.01722,0 0.07079183,0.07079183 0 0 0 0.03744,-0.0113 l 0.461033,-0.30518 a 0.06841228,0.06841228 0 0 0 0.0238,-0.0869 c -0.22011,-0.44795 -0.675203,-0.69483 -1.280801,-0.69483 -0.707322,0 -1.42119,0.36229 -1.42119,1.17075 0,0.35692 0.171922,0.82332 0.989895,1.02796 l 0.501493,0.11898 c 0.397386,0.097 0.643669,0.21833 0.643669,0.52053 0,0.37418 -0.39798,0.54194 -0.792392,0.54194 -0.47591,0 -0.753725,-0.28079 -0.904827,-0.51637 a 0.06781739,0.06781739 0 0 0 -0.04343,-0.0298 h -0.01369 a 0.06900717,0.06900717 0 0 0 -0.03866,0.0119 l -0.445572,0.30517 a 0.06900717,0.06900717 0 0 0 -0.01843,0.094 c 0.328378,0.49198 0.820947,0.74184 1.464617,0.74184 0.688287,0 1.491378,-0.31292 1.491378,-1.19396 0,-0.51696 -0.37061,-0.93576 -0.944081,-1.06841 z"
         id="path6"
         style="fill:#9aa0a6;stroke-width:0.0594889" /><path
         class="cls-2"
         d="m 36.714506,4.9399737 c -1.16301,0 -2.00776,0.8376 -2.00776,1.99228 0,1.15468 0.84475,1.99169 2.00776,1.99169 1.163,0 2.01548,-0.8376 2.01548,-1.99169 0,-1.15409 -0.84771,-1.99228 -2.01548,-1.99228 z m 0,3.37897 c -0.77038,0 -1.30875,-0.5705 -1.30875,-1.38669 0,-0.81619 0.53837,-1.38728 1.30875,-1.38728 0.77038,0 1.3147,0.57287 1.3147,1.38728 0,0.8144 -0.53956,1.38669 -1.3147,1.38669 z"
         id="path7"
         style="fill:#9aa0a6;stroke-width:0.0594889" /><rect
         class="cls-2"
         x="42.964989"
         y="5.0339737"
         width="0.6519987"
         height="3.795989"
         rx="0.067817383"
         id="rect7"
         style="fill:#9aa0a6;stroke-width:0.0594889" /><path
         class="cls-2"
         d="m 43.291596,3.6746337 a 0.44378746,0.44378746 0 1 0 0.44319,0.44379 0.45033124,0.45033124 0 0 0 -0.44319,-0.44379 z"
         id="path8"
         style="fill:#9aa0a6;stroke-width:0.0594889" /><path
         class="cls-2"
         d="m 47.791346,8.7204937 -1.50091,-1.91435 1.24213,-1.66094 a 0.06900717,0.06900717 0 0 0 0.0154,-0.0434 0.06781739,0.06781739 0 0 0 -0.0678,-0.0678 h -0.64189 a 0.06841228,0.06841228 0 0 0 -0.0553,0.0286 l -0.91554,1.29329 -0.96073,-1.29329 a 0.06900717,0.06900717 0 0 0 -0.0548,-0.0273 h -0.70374 a 0.06781739,0.06781739 0 0 0 -0.0536,0.10943 l 1.29685,1.66569 -1.47711,1.91317 a 0.06900717,0.06900717 0 0 0 -0.007,0.0714 0.06781739,0.06781739 0 0 0 0.0594,0.0381 h 0.65437 a 0.06900717,0.06900717 0 0 0 0.0548,-0.0273 l 1.13028,-1.53066 1.17312,1.53185 a 0.06722249,0.06722249 0 0 0 0.0536,0.0262 h 0.70494 a 0.06781739,0.06781739 0 0 0 0.0535,-0.10943 z"
         id="path9"
         style="fill:#9aa0a6;stroke-width:0.0594889" /><path
         class="cls-2"
         d="m 19.335998,4.9875537 a 1.4539096,1.4539096 0 0 0 -0.401552,-0.0493 c -0.634151,0 -0.9661,0.34563 -1.121365,0.58954 v -0.42773 a 0.06781739,0.06781739 0 0 0 -0.06782,-0.0678 H 17.26935 a 0.06781739,0.06781739 0 0 0 -0.06782,0.0678 v 3.66035 a 0.06781739,0.06781739 0 0 0 0.06782,0.0678 h 0.516363 a 0.06781739,0.06781739 0 0 0 0.06782,-0.0678 v -2.06307 c 0,-0.45865 0.330758,-1.1053 1.066041,-1.1053 a 0.82094733,0.82094733 0 0 1 0.27365,0.0351 0.07971518,0.07971518 0 0 0 0.0238,0.004 0.07019694,0.07019694 0 0 0 0.03272,-0.008 0.06900717,0.06900717 0 0 0 0.03391,-0.0464 l 0.101725,-0.50803 a 0.06960206,0.06960206 0 0 0 -0.04937,-0.0809 z"
         id="path10"
         style="fill:#9aa0a6;stroke-width:0.0594889" /><path
         class="cls-2"
         d="m 40.935836,4.9399737 a 1.5841904,1.5841904 0 0 0 -1.1761,0.55443 v -0.39262 a 0.06841228,0.06841228 0 0 0 -0.0678,-0.0684 h -0.52053 a 0.06781739,0.06781739 0 0 0 -0.0631,0.0596 0.0226058,0.0226058 0 0 0 0,0.006 v 0.0245 a 0.00773356,0.00773356 0 0 0 0,0.003 v 0.70791 a 0.02617514,0.02617514 0 0 0 0,0.006 v 2.91852 a 0.06781739,0.06781739 0 0 0 0.0678,0.0678 h 0.51875 a 0.06781739,0.06781739 0 0 0 0.0678,-0.0678 v -1.8739 c 0,-1.32482 1.00001,-1.34029 1.04284,-1.34029 0.66569,0 0.92505,0.33433 0.92505,1.18979 v 2.02262 a 0.06781739,0.06781739 0 0 0 0.0678,0.0678 h 0.51398 a 0.06781739,0.06781739 0 0 0 0.0678,-0.0678 v -2.3201 c 0,-0.97859 -0.4991,-1.49733 -1.44439,-1.49733 z"
         id="path11"
         style="fill:#9aa0a6;stroke-width:0.0594889" /><path
         class="cls-2"
         d="m 16.613189,6.3064337 c 0,-0.43606 -0.145748,-0.79418 -0.422372,-1.03511 -0.248663,-0.21654 -0.588346,-0.33135 -0.983352,-0.33135 -0.691261,0 -1.243914,0.19095 -1.597278,0.55206 a 0.06841228,0.06841228 0 0 0 -0.003,0.0915 l 0.312912,0.36765 a 0.06722249,0.06722249 0 0 0 0.04758,0.0238 h 0.0041 a 0.06781739,0.06781739 0 0 0 0.04521,-0.0179 1.5621794,1.5621794 0 0 1 1.070801,-0.41286 c 0.59489,0 0.870918,0.27961 0.870918,0.87866 v 0.0255 h -0.190352 c -0.64129,0 -2.343864,0 -2.343864,1.33553 0,0.78288 0.687692,1.13922 1.327198,1.13922 0.559791,0 0.944685,-0.17371 1.23975,-0.56098 v 0.38012 a 0.08685385,0.08685385 0 0 0 0.08685,0.0869 h 0.445572 a 0.08685385,0.08685385 0 0 0 0.08686,-0.0869 v -2.43903 z m -0.654379,0.70137 v 0.19809 c 0,0.53541 -0.274244,1.11305 -1.04284,1.11305 -0.365858,0 -0.792394,-0.15824 -0.792394,-0.60501 0,-0.46877 0.550868,-0.70613 1.637136,-0.70613 z"
         id="path12"
         style="fill:#9aa0a6;stroke-width:0.0594889" /></g></g></svg>
