<?xml version="1.0" encoding="UTF-8" standalone="no"?>
<!-- Created with Inkscape (http://www.inkscape.org/) -->

<svg
   width="270.93332mm"
   height="270.93332mm"
   viewBox="0 0 270.93332 270.93332"
   version="1.1"
   id="svg1"
   xml:space="preserve"
   inkscape:version="1.4 (e7c3feb1, 2024-10-09)"
   sodipodi:docname="favicon.svg"
   xmlns:inkscape="http://www.inkscape.org/namespaces/inkscape"
   xmlns:sodipodi="http://sodipodi.sourceforge.net/DTD/sodipodi-0.dtd"
   xmlns="http://www.w3.org/2000/svg"
   xmlns:svg="http://www.w3.org/2000/svg"><sodipodi:namedview
     id="namedview1"
     pagecolor="#ffffff"
     bordercolor="#000000"
     borderopacity="0.25"
     inkscape:showpageshadow="2"
     inkscape:pageopacity="0.0"
     inkscape:pagecheckerboard="0"
     inkscape:deskcolor="#d1d1d1"
     inkscape:document-units="mm"
     inkscape:zoom="0.2481917"
     inkscape:cx="213.54461"
     inkscape:cy="-62.451725"
     inkscape:window-width="1920"
     inkscape:window-height="1022"
     inkscape:window-x="0"
     inkscape:window-y="30"
     inkscape:window-maximized="1"
     inkscape:current-layer="layer1" /><defs
     id="defs1"><linearGradient
       id="linear-gradient"
       x1="169.3"
       y1="153.10001"
       x2="270.89999"
       y2="153.10001"
       gradientUnits="userSpaceOnUse"><stop
         offset="0"
         stop-color="#00000b"
         id="stop16" /><stop
         offset="1"
         stop-color="#0d4a76"
         id="stop17" /></linearGradient><linearGradient
       id="linear-gradient-4"
       x1="169.3"
       y1="153.10001"
       x2="270.89999"
       y2="153.10001"
       gradientUnits="userSpaceOnUse"><stop
         offset="0"
         stop-color="#00000b"
         id="stop16-0" /><stop
         offset="1"
         stop-color="#0d4a76"
         id="stop17-7" /></linearGradient></defs><g
     inkscape:label="Layer 1"
     inkscape:groupmode="layer"
     id="layer1"><rect
       style="fill:#f55000;stroke-width:1;fill-opacity:1"
       id="rect1"
       width="270.93329"
       height="270.93329"
       x="0"
       y="0"
       ry="2.5412841" /><polygon
       class="st834"
       points="190.2,174.1 208.5,157.1 220,161 212.7,166.9 205.2,176.1 200.3,175.9 196,179.4 197.5,184.3 206.4,195.7 209,196.4 209.7,193 207.3,184 208.1,181.1 235.6,165.4 237.6,158.8 233.7,152 219.3,140.9 235.3,128.8 241.3,136.7 246.7,136.9 256.5,130.2 265.1,119.9 271.5,116.3 270,111.2 266.5,108.8 263.5,111.9 262.2,116.6 246.7,125.3 245.3,120 241,113.3 242,111.2 246.9,111.6 249.8,110.5 251.3,105.1 252.6,104.6 251.4,99.3 251.2,92.5 246.2,88.9 238.8,89 234.3,94 234.7,100.7 229.4,103.3 218.8,99.5 201.9,98.6 188.6,114.1 181.8,117 181.1,123 182.9,125.5 187,124.2 190.9,118.9 204.4,107.8 210.5,111 216.5,111.8 193.8,136.1 181.6,165.9 167.4,177.2 157.6,192.9 152,191.7 147.7,195.3 149,203.2 148.5,214.4 152.7,217.4 154.2,217.2 153.4,212.5 156,205.2 160.1,199.4 182.4,180 189,177.5 "
       id="polygon5743"
       style="fill:#ffffff;fill-opacity:1"
       transform="matrix(1.4134162,0,0,1.4134162,-160.78538,-75.706364)" /></g></svg>
